<svg height="512" viewBox="0 0 59 60" width="512" xmlns="http://www.w3.org/2000/svg"><g id="Page-1" fill="none" fill-rule="evenodd"><g id="020---Microchip" fill="rgb(0,0,0)" fill-rule="nonzero"><path id="Shape" d="m28.95 21.148-.413-2.9c.042-.027.089-.045.131-.073 1.6441025-1.1910062 2.5511207-3.150847 2.395-5.175 0-6.278-3.215-13-8-13-3.0139145.16573195-5.9954911.70588238-8.876 1.608-1.1249039.33009549-2.09752 1.0460146-2.747 2.022l-2.352 3.529c-.41437994.61925368-1.04477605 1.06174326-1.768 1.241l-5.8 1.449c-.86367318.2161979-1.4804422.9772737-1.513 1.867-.058 1.7.187 7.382 5.739 9.233.10225487.0338615.2092844.0510807.317.051 2.94895925.0341902 5.8741324.5326305 8.668 1.477l-.251.543c-1.6034727 3.0840349-2.4533556 6.504128-2.48 9.98.0667239 3.8272001 1.4834204 7.5077775 4 10.392v10.887c-1.329.512-3.937 1.878-3.937 4.721 0 .5522847.4477153 1 1 1h27.937c1.7358019-.0299137 3.387507-.7529623 4.587-2.008 9.245-.255 13.413-6.518 13.413-10.992-.1181371-2.9291988-.8327118-5.8034905-2.1-8.447-.2040519-.4214702-.6732513-.6449027-1.129074-.5376645-.4558226.1072383-.7761896.5164267-.770926.9846645 0 7.188-5.6 9.222-8.94 9.794-.2671544.0475761-.5420662-.0179826-.759-.181-.2094935-.1516592-.3467243-.3833946-.379-.64-1.045-8.174-8.049-20.586-11.155-23.68-1.3044537-1.4498544-2.9648945-2.5339495-4.817-3.145zm-26.944-9.348 1.994-.5v1.7h-1.963c-.03348431-.3990665-.04383497-.7997369-.031-1.2zm40.932 36.426c.0989585.7983718.5234616 1.5203526 1.173 1.995.6566917.4855236 1.4829435.6823362 2.288.545 2.646-.454 8.2-2.076 10.016-7.747.3664907 1.2960852.5631347 2.6342727.585 3.981 0 3.629-3.813 9-12 9-.4583886-.000103-.8581532.311466-.97.756-.8313193.7596045-1.9047524 1.2003143-3.03 1.244h-1.556c.3599241-.6053465.5518554-1.2957468.556-2 0-.5522847-.4477153-1-1-1s-1 .4477153-1 1c0 1.1045695-.8954305 2-2 2h-13.279c.755-.915 2.279-2 5.279-2 .5047125-.0005564.929899-.377126.9914367-.8780733.0615377-.5009472-.259865-.9692298-.7494367-1.0919267-.032-.008-3.242-.859-3.242-5.03-.0521315-2.4835335 1.0677904-4.8467428 3.023-6.379 1.6571898-1.1531648 3.7798922-1.4051443 5.661-.672.5246705.174522 1.091478-.1093295 1.266-.634.1745219-.5246705-.1093295-1.091478-.634-1.266-2.4921358-.9314774-5.2831577-.5757736-7.462.951-2.4732452 1.9105965-3.901389 4.875088-3.854 8-.072387 1.9872986.6665537 3.9185799 2.047 5.35-2.0347963.4365929-3.7572554 1.7816883-4.674 3.65h-6.066c.74-1.442 2.915-2.024 2.939-2.031.4433785-.1125291.7538766-.5115644.754-.969v-12c.0002093-.2645618-.1044287-.5184257-.291-.706-2.3062392-2.5558587-3.6218663-5.8525525-3.709-9.294.0266411-3.186193.8152628-6.3197641 2.3-9.139l.255-.553c.2266729-.4905377.240426-1.0529696.038-1.554-.205284-.5070189-.6082473-.9085379-1.116-1.112-2.9715924-1.044864-6.09335068-1.5994379-9.243-1.642-1.84513701-.6337397-3.26622438-2.1260867-3.809-4h1.575c1.1045695 0 2-.8954305 2-2v-2.2l1.8-.451c1.20697914-.3005898 2.2580614-1.0413763 2.947-2.077l2.353-3.532c.3880616-.58425129.9693455-1.01331104 1.642-1.212 2.7005063-.84865509 5.4951653-1.36184327 8.321-1.528 3.14 0 6 5.243 6 11 .1336478 1.357988-.4405627 2.6892497-1.52 3.524-1.5149161.8400362-3.3378522.9141996-4.916.2-.3801213-.1551877-.628131-.5254222-.627-.936v-6.788c0-.55228475-.4477153-1-1-1s-1 .44771525-1 1v6.788c-.0071713 1.2324881.7441398 2.342569 1.891 2.794 1.5028906.599866 3.1467901.7540142 4.735.444l.345 2.412c.1126488.7888437.6865411 1.4336355 1.457 1.637 1.5119087.5282671 2.8634581 1.4346934 3.926 2.633 2.634 2.625 9.571 14.592 10.584 22.518z"/><path id="Shape" d="m31.707 28.293-2-2c-.3923789-.3789722-1.0160848-.3735524-1.4018186.0121814s-.3911536 1.0094397-.0121814 1.4018186l2 2c.3923789.3789722 1.0160848.3735524 1.4018186-.0121814s.3911536-1.0094397.0121814-1.4018186z"/><path id="Shape" d="m51 28c0 .5522847.4477153 1 1 1s1-.4477153 1-1c.0019241-9.2533933-5.5417092-17.6068673-14.069-21.2-.5086543-.21594332-1.0960566.02134576-1.312.53000001-.2159433.50865425.0213458 1.09605664.53 1.31199999 7.7873281 3.2805206 12.8508353 10.9078938 12.851 19.358z"/><path id="Shape" d="m35.751 10.919c-.0984896.2463783-.0950249.5217985.0096313.7656213.1046563.2438228.3019233.4360571.5483687.5343787 6.4708579 2.560006 10.7132336 8.8221827 10.691 15.781 0 .5522847.4477153 1 1 1s1-.4477153 1-1c.0242034-7.7777119-4.7170694-14.7767337-11.949-17.639-.2463783-.0984896-.5217985-.0950249-.7656213.0096313-.2438228.1046563-.4360571.3019233-.5343787.5483687z"/><path id="Shape" d="m34.81 13.85c-.4908246.0011006-.9082949.358256-.9853559.8429947s.2090701.9537487.6753559 1.1070053c5.0964426 1.9011029 8.482124 6.7605515 8.5 12.2 0 .5522847.4477153 1 1 1s1-.4477153 1-1c-.0185886-6.2875145-3.9383617-11.9029064-9.834-14.088-.114192-.0410844-.2346421-.0620617-.356-.062z"/><path id="Shape" d="m31.984 18.146c-.0780253.2535469-.0521077.5277069.0720484.7621408.1241562.2344338.3363757.4099283.5899516.4878592 3.7854746 1.1503764 6.3681633 4.6476149 6.354 8.604 0 .5522847.4477153 1 1 1s1-.4477153 1-1c.0170783-4.8351879-3.1389268-9.1093089-7.765-10.516-.2536792-.0783315-.5280956-.0525679-.762762.0716121s-.4103182.3365819-.488238.5903879z"/></g></g></svg>