<svg id="Capa_1" enable-background="new 0 0 480 480" height="512" viewBox="0 0 480 480" width="512" xmlns="http://www.w3.org/2000/svg"><path d="m472 112h-104v-104c0-4.418-3.582-8-8-8h-240c-4.418 0-8 3.582-8 8v104h-104c-4.418 0-8 3.582-8 8v240c0 4.418 3.582 8 8 8h104v104c0 4.418 3.582 8 8 8h240c4.418 0 8-3.582 8-8v-104h104c4.418 0 8-3.582 8-8v-240c0-4.418-3.582-8-8-8zm-359.983 240h-6.137c-4.683.001-9.24-1.518-12.986-4.327-13.727-10.303-22.803-25.633-25.234-42.623-1.622-11.571 1.303-23.32 8.161-32.779l6.6 26.389c3.765 15.126 16.243 26.512 31.649 28.88-1.286 8.092-1.972 16.267-2.053 24.46zm15.983 112v-28c-.023 9.555 3.775 18.722 10.548 25.462.898.894 1.841 1.741 2.826 2.538zm56-32v4c0 11.046-8.954 20-20 20s-20-8.954-20-20v-6c.016-6.291 2.976-12.213 8-16 15.11-11.33 24.002-29.114 24-48v-6c0-4.418-3.582-8-8-8s-8 3.582-8 8v6c.003 13.85-6.518 26.892-17.6 35.2-9.043 6.817-14.372 17.475-14.4 28.8v-76.3c-.001-10.759 1.154-21.487 3.444-32 .011-.051.023-.1.033-.152 1.137-5.205 2.55-10.345 4.232-15.4l4.362-13.075c7.194-21.519 19.279-41.077 35.306-57.138l.591-.591c15.031-14.993 27.05-32.727 35.405-52.244l9.9-23.1h10.727c2.122 0 4.157-.843 5.657-2.343l16-16c3.124-3.124 3.124-8.19 0-11.314s-8.19-3.124-11.314 0l-13.656 13.657h-35.707c-11.017.012-20.622-7.49-23.28-18.181l-1.455-5.819h7.755c8.832-.01 15.99-7.168 16-16v-8h8c3.444 0 6.501-2.203 7.59-5.47 4.553-13.671 13.846-25.263 26.2-32.68l3.518-2.1c15.912-9.539 35.588-10.313 52.2-2.054l.427.219c11.429 5.676 20.486 15.206 25.574 26.909-1.092-.538-2.292-.82-3.509-.824h-32c-4.418 0-8 3.582-8 8v38.7c-.052 17.636 14.203 31.975 31.839 32.026 5.677.017 11.255-1.48 16.161-4.336v69.032c-3.265-4.702-7.258-8.854-11.829-12.3l-23.371-17.522c-3.535-2.651-8.549-1.935-11.2 1.6-1.039 1.385-1.6 3.069-1.6 4.8v17.754l-7.5 1.876c-14.157 3.499-25.524 14.024-30.1 27.87l-.167.5h-18.233c-4.418 0-8 3.582-8 8v19.1c.021 15.954 12.951 28.882 28.905 28.9h14.151l-7.39 14.779c-1.161 2.325-2.962 4.271-5.191 5.607-23.991 14.35-41.604 37.311-49.249 64.2l-1.19 4.163c-2.678 9.373-4.036 19.074-4.036 28.823.003 2.12.12 4.239.351 6.347-.232 1.348-.35 2.713-.351 4.081zm-19.5-328c0-.046 0-.092 0-.138.006-.337.034-.673.082-1.007.014-.1.027-.2.045-.294.068-.381.162-.757.284-1.125.014-.04.033-.079.048-.119.12-.332.262-.655.425-.968.048-.093.1-.185.148-.276.194-.349.414-.683.656-1 1.511-1.945 3.838-3.079 6.3-3.072h3.512v8zm155.5 3.313v19.387c0 8.837-7.163 16-16 16s-16-7.163-16-16v-30.7h20.687zm-133.407 356.687c3.135-2.535 5.825-5.575 7.961-8.994 2.279 3.252 4.881 6.266 7.766 8.994zm136.463 0h-19.056v-88c0-4.418-3.582-8-8-8s-8 3.582-8 8v57.875c-3.049-1.24-6.309-1.876-9.6-1.875h-7.45l1.091-1.636c10.712-16.069 6.369-37.78-9.7-48.492-5.744-3.829-12.494-5.873-19.397-5.872h-2.944c-4.418 0-8 3.582-8 8s3.582 8 8 8h2.944c10.475-.001 18.968 8.49 18.969 18.965 0 3.745-1.108 7.406-3.186 10.523l-9.383 14.074c-2.451 3.676-1.458 8.643 2.218 11.094 1.314.876 2.858 1.344 4.438 1.344h22.4c5.299.008 9.592 4.301 9.6 9.6v6.4h-45.572c-23.421-.026-42.402-19.007-42.428-42.428 0-8.261 1.151-16.482 3.421-24.425l1.189-4.163c6.535-22.986 21.592-42.613 42.1-54.879 4.84-2.9 8.75-7.122 11.271-12.169l12.6-25.2 7.083-7.083c3.124-3.124 3.124-8.19 0-11.314s-8.19-3.124-11.314 0l-5.663 5.661h-23.782c-7.122-.008-12.895-5.778-12.905-12.9v-11.1h16c3.444 0 6.501-2.203 7.59-5.47l1.99-5.969c2.858-8.649 9.958-15.223 18.8-17.41l13.561-3.39c3.561-.891 6.059-4.09 6.059-7.761v-8l10.571 7.929c4.678 3.516 8.477 8.069 11.1 13.3 6.777 13.594 10.312 28.573 10.329 43.762v167.009c0 2.122.843 4.157 2.343 5.657l3.923 3.923zm140.944-112h-104c-4.418 0-8 3.582-8 8v104h-11.056l2.211-4.422c1.54-3.08.936-6.8-1.5-9.235l-5.655-5.656v-342.137c.094-26.649-14.959-51.038-38.823-62.9l-.436-.223c-21.514-10.75-47.028-9.769-67.653 2.6l-3.514 2.1c-13.918 8.348-24.814 20.913-31.107 35.873h-21.977c-13.255.001-23.999 10.748-23.997 24.003 0 1.961.241 3.915.716 5.817l4.969 19.879c4.431 17.818 20.439 30.32 38.8 30.3h10.887l-7.2 16.8c-7.554 17.645-18.421 33.679-32.013 47.232l-.591.591c-17.781 17.822-31.189 39.523-39.17 63.4l-4.362 13.073c-1.182 3.549-2.24 7.128-3.173 10.737-9.393-1.083-17.129-7.876-19.417-17.05l-10.178-40.722c-1.071-4.286-5.415-6.893-9.701-5.821-1.407.352-2.691 1.079-3.717 2.104l-5.3 5.3c-13.51 13.577-19.884 32.696-17.223 51.664 2.4 16.834 10.062 32.477 21.89 44.693h-57.71v-224h104c4.418 0 8-3.582 8-8v-104h224v104c0 4.418 3.582 8 8 8h104z"/><path d="m204.021 234.638c3.535 2.651 8.549 1.935 11.2-1.6 10.574-14.09 18.803-29.794 24.369-46.508 1.397-4.192-.868-8.723-5.06-10.12s-8.723.868-10.12 5.06c-5.022 15.082-12.447 29.254-21.988 41.968-2.651 3.534-1.935 8.549 1.599 11.2z"/><path d="m180.8 265.6c-3.535-2.651-8.549-1.935-11.2 1.6-16.566 22.183-25.543 49.114-25.6 76.8 0 4.418 3.582 8 8 8s8-3.582 8-8c.05-24.225 7.905-47.79 22.4-67.2 2.651-3.535 1.935-8.549-1.6-11.2z"/><circle cx="240" cy="96" r="8"/><circle cx="272" cy="256" r="8"/></svg>